<svg width="114" height="46" viewBox="0 0 114 46" fill="none" xmlns="http://www.w3.org/2000/svg">
<path d="M110.889 41.8087C115.312 42.7068 111.693 5.98661 110.989 3.59182C108.979 -2.99387 84.1469 1.49637 78.6176 1.8955C65.8498 2.89333 53.283 0.897673 40.8169 1.49637C34.5838 1.79572 5.73056 -0.299724 3.11668 3.49203C-1.91001 10.6764 0.402269 29.2361 1.80974 38.5159C-2.21161 39.3142 4.12202 42.7068 4.92629 43.4053C11.2599 45.6005 21.4138 43.2057 28.0491 43.8044C43.5313 45.3011 60.0188 41.6092 75.6015 42.8066C80.1256 43.9042 85.2528 43.8044 89.8773 44.004C93.396 49.5918 109.682 41.6092 110.889 41.8087C110.788 41.8087 111.392 41.9085 110.889 41.8087Z" fill="black"/>
</svg>
